G04 Layer_Physical_Order=1*
G04 Layer_Color=255*
%FSLAX25Y25*%
%MOIN*%
G70*
G01*
G75*
G04:AMPARAMS|DCode=10|XSize=23.62mil|YSize=19.69mil|CornerRadius=4.92mil|HoleSize=0mil|Usage=FLASHONLY|Rotation=90.000|XOffset=0mil|YOffset=0mil|HoleType=Round|Shape=RoundedRectangle|*
%AMROUNDEDRECTD10*
21,1,0.02362,0.00984,0,0,90.0*
21,1,0.01378,0.01969,0,0,90.0*
1,1,0.00984,0.00492,0.00689*
1,1,0.00984,0.00492,-0.00689*
1,1,0.00984,-0.00492,-0.00689*
1,1,0.00984,-0.00492,0.00689*
%
%ADD10ROUNDEDRECTD10*%
%ADD11R,0.03000X0.03000*%
%ADD12R,0.03000X0.03000*%
%ADD13R,0.02500X0.02000*%
%ADD14R,0.04921X0.04331*%
%ADD15O,0.08000X0.02400*%
%ADD16R,0.08000X0.02400*%
%ADD17R,0.09055X0.01969*%
%ADD18O,0.06102X0.00984*%
%ADD19O,0.00984X0.06102*%
%ADD20R,0.03937X0.09449*%
%ADD21R,0.12992X0.09449*%
%ADD22R,0.05906X0.10630*%
%ADD23R,0.11811X0.02756*%
%ADD24O,0.11811X0.02756*%
%ADD25R,0.02756X0.07874*%
%ADD26O,0.02756X0.07874*%
%ADD27R,0.13780X0.04724*%
%ADD28C,0.00800*%
%ADD29C,0.01000*%
%ADD30C,0.01500*%
%ADD31C,0.02500*%
%ADD32C,0.02000*%
%ADD33C,0.00000*%
%ADD34C,0.05906*%
%ADD35R,0.05906X0.05906*%
%ADD36R,0.07874X0.07874*%
%ADD37R,0.05906X0.05906*%
G36*
X359900Y280257D02*
X364074D01*
Y270783D01*
X359900D01*
Y245217D01*
X364074D01*
Y235743D01*
X359900D01*
Y155000D01*
X699900D01*
Y332500D01*
X359900D01*
Y280257D01*
D02*
G37*
%LPC*%
G36*
X475400Y218000D02*
X477400D01*
Y216000D01*
X475400D01*
Y218000D01*
D02*
G37*
G36*
X457900D02*
X459900D01*
Y216000D01*
X457900D01*
Y218000D01*
D02*
G37*
G36*
X460900D02*
X462900D01*
Y216000D01*
X460900D01*
Y218000D01*
D02*
G37*
G36*
X457900Y215000D02*
X459900D01*
Y213000D01*
X457900D01*
Y215000D01*
D02*
G37*
G36*
X391900Y215500D02*
X393650D01*
Y214000D01*
X391900D01*
Y215500D01*
D02*
G37*
G36*
X440900Y226425D02*
X444928D01*
X445855Y226240D01*
X446642Y225714D01*
X447167Y224928D01*
X447253Y224500D01*
X440900D01*
Y226425D01*
D02*
G37*
G36*
X435872D02*
X439900D01*
Y224500D01*
X433547D01*
X433633Y224928D01*
X434158Y225714D01*
X434945Y226240D01*
X435872Y226425D01*
D02*
G37*
G36*
X433547Y223500D02*
X439900D01*
Y221575D01*
X435872D01*
X434945Y221760D01*
X434158Y222286D01*
X433633Y223072D01*
X433547Y223500D01*
D02*
G37*
G36*
X449600Y224039D02*
X455200D01*
X455980Y223884D01*
X456642Y223442D01*
X457084Y222780D01*
X457239Y222000D01*
X457084Y221220D01*
X456642Y220558D01*
X455980Y220116D01*
X455200Y219961D01*
X449600D01*
X448820Y220116D01*
X448158Y220558D01*
X447716Y221220D01*
X447561Y222000D01*
X447716Y222780D01*
X448158Y223442D01*
X448820Y223884D01*
X449600Y224039D01*
D02*
G37*
G36*
X440900Y223500D02*
X447253D01*
X447167Y223072D01*
X446642Y222286D01*
X445855Y221760D01*
X444928Y221575D01*
X440900D01*
Y223500D01*
D02*
G37*
G36*
X460900Y215000D02*
X462900D01*
Y213000D01*
X460900D01*
Y215000D01*
D02*
G37*
G36*
X476947Y169953D02*
X480400D01*
Y166500D01*
X476947D01*
Y169953D01*
D02*
G37*
G36*
X688900Y175500D02*
X692321D01*
X692251Y174968D01*
X691853Y174007D01*
X691219Y173181D01*
X690393Y172547D01*
X689432Y172149D01*
X688900Y172079D01*
Y175500D01*
D02*
G37*
G36*
X481400Y169953D02*
X484853D01*
Y166500D01*
X481400D01*
Y169953D01*
D02*
G37*
G36*
Y165500D02*
X484853D01*
Y162047D01*
X481400D01*
Y165500D01*
D02*
G37*
G36*
X476947D02*
X480400D01*
Y162047D01*
X476947D01*
Y165500D01*
D02*
G37*
G36*
X475400Y215000D02*
X477400D01*
Y213000D01*
X475400D01*
Y215000D01*
D02*
G37*
G36*
X472400D02*
X474400D01*
Y213000D01*
X472400D01*
Y215000D01*
D02*
G37*
G36*
X482400Y182500D02*
X484400D01*
Y180500D01*
X482400D01*
Y182500D01*
D02*
G37*
G36*
X688900Y179921D02*
X689432Y179851D01*
X690393Y179453D01*
X691219Y178819D01*
X691853Y177993D01*
X692251Y177032D01*
X692321Y176500D01*
X688900D01*
Y179921D01*
D02*
G37*
G36*
X482400Y179500D02*
X484400D01*
Y177500D01*
X482400D01*
Y179500D01*
D02*
G37*
G36*
X429955Y243083D02*
X432424D01*
Y237858D01*
X429955D01*
Y243083D01*
D02*
G37*
G36*
X532386Y328825D02*
X620914D01*
X621421Y328725D01*
X621852Y328437D01*
X645590Y304699D01*
X645877Y304269D01*
X645978Y303762D01*
Y300238D01*
X645877Y299731D01*
X645590Y299301D01*
X643099Y296810D01*
X642669Y296523D01*
X642162Y296422D01*
X636696D01*
X633821Y293547D01*
X634056Y292980D01*
X634185Y292000D01*
X634056Y291020D01*
X633678Y290107D01*
X633076Y289323D01*
X632293Y288722D01*
X631380Y288344D01*
X630400Y288215D01*
X629420Y288344D01*
X628507Y288722D01*
X627724Y289323D01*
X627122Y290107D01*
X626744Y291020D01*
X626615Y292000D01*
X626744Y292980D01*
X627122Y293893D01*
X627724Y294676D01*
X628507Y295278D01*
X629420Y295656D01*
X630400Y295785D01*
X631380Y295656D01*
X631947Y295421D01*
X635210Y298685D01*
X635640Y298972D01*
X636147Y299073D01*
X637034D01*
X637280Y299573D01*
X636947Y300007D01*
X636549Y300968D01*
X636479Y301500D01*
X640400D01*
Y302500D01*
X636479D01*
X636549Y303032D01*
X636947Y303993D01*
X637581Y304819D01*
X638407Y305453D01*
X639368Y305851D01*
X639910Y305922D01*
X640090Y306450D01*
X620365Y326174D01*
X618260D01*
X618069Y325713D01*
X625590Y318191D01*
X625877Y317761D01*
X625978Y317254D01*
Y302527D01*
X626478Y302494D01*
X626549Y303032D01*
X626947Y303993D01*
X627581Y304819D01*
X628407Y305453D01*
X629368Y305851D01*
X629900Y305921D01*
Y302000D01*
Y298079D01*
X629368Y298149D01*
X628407Y298547D01*
X627581Y299181D01*
X626947Y300007D01*
X626549Y300968D01*
X626478Y301506D01*
X625978Y301473D01*
Y298509D01*
X625877Y298002D01*
X625590Y297571D01*
X624828Y296810D01*
X624399Y296523D01*
X623891Y296422D01*
X621860D01*
X621528Y296040D01*
X621645Y295546D01*
X622293Y295278D01*
X623076Y294676D01*
X623678Y293893D01*
X624056Y292980D01*
X624185Y292000D01*
X624056Y291020D01*
X623678Y290107D01*
X623076Y289323D01*
X622293Y288722D01*
X621380Y288344D01*
X620400Y288215D01*
X619420Y288344D01*
X618507Y288722D01*
X617724Y289323D01*
X617122Y290107D01*
X616744Y291020D01*
X616615Y292000D01*
X616744Y292980D01*
X616984Y293560D01*
X616734Y293934D01*
X616633Y294442D01*
X616734Y294949D01*
X617021Y295379D01*
X619428Y297785D01*
X619237Y298247D01*
X616647D01*
Y304022D01*
X616182Y304488D01*
X615917Y304885D01*
X615824Y305353D01*
Y308545D01*
X615917Y309013D01*
X616182Y309410D01*
X618058Y311285D01*
X617866Y311747D01*
X612647D01*
Y314642D01*
X612622Y314770D01*
Y315500D01*
X612647Y315628D01*
Y317378D01*
X611337Y318689D01*
X609503D01*
X609319Y318189D01*
X609853Y317493D01*
X610251Y316532D01*
X610321Y316000D01*
X606400D01*
Y315500D01*
X605900D01*
Y311579D01*
X605368Y311649D01*
X604407Y312047D01*
X603581Y312681D01*
X603018Y313414D01*
X602455Y313558D01*
X601260Y312363D01*
X600933Y312144D01*
X599099Y310310D01*
X598669Y310023D01*
X598162Y309922D01*
X594638D01*
X594420Y309965D01*
X591017D01*
X589761Y308710D01*
X589331Y308423D01*
X588824Y308322D01*
X583976D01*
X583468Y308423D01*
X583039Y308710D01*
X582673Y309076D01*
X580507Y306910D01*
X580077Y306623D01*
X579570Y306522D01*
X572664D01*
X571253Y305110D01*
X570823Y304823D01*
X570315Y304722D01*
X563410D01*
X561998Y303310D01*
X561568Y303023D01*
X561061Y302922D01*
X557997D01*
X553387Y298312D01*
Y269500D01*
X554400D01*
Y267000D01*
Y264500D01*
X553387D01*
Y262283D01*
X553481Y261811D01*
Y256693D01*
X553381Y256189D01*
X553095Y255761D01*
X552668Y255476D01*
X552164Y255376D01*
X551660Y255476D01*
X551407Y255644D01*
X551271Y255617D01*
X550777Y255287D01*
X550695Y255271D01*
Y259252D01*
X549695D01*
Y255027D01*
X549450Y254841D01*
Y252500D01*
Y230347D01*
X554667Y225131D01*
X555142Y225237D01*
X555200Y225305D01*
X555517Y225781D01*
X555544Y225917D01*
X555376Y226169D01*
X555275Y226673D01*
X555376Y227177D01*
X555432Y227262D01*
X555634Y227658D01*
X555432Y228053D01*
X555376Y228138D01*
X555275Y228642D01*
X555376Y229146D01*
X555432Y229230D01*
X555634Y229626D01*
X555432Y230022D01*
X555376Y230106D01*
X555275Y230610D01*
X555376Y231114D01*
X555432Y231199D01*
X555634Y231594D01*
X555432Y231990D01*
X555376Y232075D01*
X555275Y232579D01*
X555376Y233083D01*
X555432Y233167D01*
X555634Y233563D01*
X555432Y233959D01*
X555376Y234043D01*
X555275Y234547D01*
X555376Y235051D01*
X555432Y235136D01*
X555634Y235531D01*
X555432Y235927D01*
X555376Y236012D01*
X555275Y236516D01*
X555376Y237020D01*
X555432Y237104D01*
X555634Y237500D01*
X555432Y237896D01*
X555376Y237980D01*
X555275Y238484D01*
X555376Y238988D01*
X555432Y239073D01*
X555634Y239469D01*
X555432Y239864D01*
X555376Y239949D01*
X555275Y240453D01*
X555376Y240957D01*
X555432Y241041D01*
X555634Y241437D01*
X555432Y241833D01*
X555376Y241917D01*
X555275Y242421D01*
X555376Y242925D01*
X555432Y243010D01*
X555634Y243406D01*
X555432Y243801D01*
X555376Y243886D01*
X555275Y244390D01*
X555376Y244894D01*
X555432Y244978D01*
X555634Y245374D01*
X555432Y245770D01*
X555376Y245854D01*
X555275Y246358D01*
X555376Y246862D01*
X555432Y246947D01*
X555634Y247342D01*
X555432Y247738D01*
X555376Y247823D01*
X555275Y248327D01*
X555376Y248831D01*
X555432Y248916D01*
X555634Y249311D01*
X555432Y249707D01*
X555376Y249791D01*
X555275Y250295D01*
X555376Y250799D01*
X555432Y250884D01*
X555634Y251279D01*
X555432Y251675D01*
X555376Y251760D01*
X555275Y252264D01*
X555376Y252768D01*
X555661Y253195D01*
X556089Y253481D01*
X556593Y253581D01*
X559111D01*
X559152Y253589D01*
X627160D01*
X661415Y287844D01*
X661182Y288318D01*
X660400Y288215D01*
X659420Y288344D01*
X658507Y288722D01*
X657724Y289323D01*
X657122Y290107D01*
X656744Y291020D01*
X656615Y292000D01*
X656744Y292980D01*
X657122Y293893D01*
X657724Y294676D01*
X658507Y295278D01*
X659420Y295656D01*
X660400Y295785D01*
X661380Y295656D01*
X662293Y295278D01*
X663076Y294676D01*
X663678Y293893D01*
X663882Y293400D01*
X664375Y293349D01*
X677529Y306504D01*
Y312469D01*
X677630Y312976D01*
X677917Y313406D01*
X685701Y321190D01*
X686131Y321477D01*
X686638Y321578D01*
X690162D01*
X690669Y321477D01*
X691099Y321190D01*
X693590Y318699D01*
X693877Y318269D01*
X693978Y317761D01*
Y306000D01*
X693877Y305493D01*
X693590Y305063D01*
X693160Y304775D01*
X692653Y304675D01*
X691913D01*
X691678Y304107D01*
X691077Y303324D01*
X690293Y302722D01*
X689380Y302344D01*
X688400Y302215D01*
X687420Y302344D01*
X686853Y302579D01*
X634389Y250114D01*
X634580Y249652D01*
X640178D01*
X684979Y294453D01*
X684744Y295020D01*
X684615Y296000D01*
X684744Y296980D01*
X685122Y297893D01*
X685723Y298676D01*
X686507Y299278D01*
X687420Y299656D01*
X688400Y299785D01*
X689380Y299656D01*
X690293Y299278D01*
X691077Y298676D01*
X691678Y297893D01*
X692056Y296980D01*
X692185Y296000D01*
X692056Y295020D01*
X691678Y294107D01*
X691077Y293323D01*
X690293Y292722D01*
X689380Y292344D01*
X688400Y292215D01*
X687420Y292344D01*
X686853Y292579D01*
X642420Y248146D01*
X642612Y247684D01*
X648209D01*
X684979Y284453D01*
X684744Y285020D01*
X684615Y286000D01*
X684744Y286980D01*
X685122Y287893D01*
X685723Y288677D01*
X686507Y289278D01*
X687420Y289656D01*
X688400Y289785D01*
X689380Y289656D01*
X690293Y289278D01*
X691077Y288677D01*
X691678Y287893D01*
X692056Y286980D01*
X692185Y286000D01*
X692056Y285020D01*
X691678Y284107D01*
X691077Y283324D01*
X690293Y282722D01*
X689380Y282344D01*
X688400Y282215D01*
X687420Y282344D01*
X686853Y282579D01*
X650452Y246177D01*
X650643Y245715D01*
X656241D01*
X684979Y274453D01*
X684744Y275020D01*
X684615Y276000D01*
X684744Y276980D01*
X685122Y277893D01*
X685723Y278677D01*
X686507Y279278D01*
X687420Y279656D01*
X688400Y279785D01*
X689380Y279656D01*
X690293Y279278D01*
X691077Y278677D01*
X691678Y277893D01*
X692056Y276980D01*
X692185Y276000D01*
X692056Y275020D01*
X691678Y274107D01*
X691077Y273323D01*
X690293Y272722D01*
X689380Y272344D01*
X688400Y272215D01*
X687420Y272344D01*
X686853Y272579D01*
X658483Y244209D01*
X658674Y243747D01*
X664272D01*
X684979Y264453D01*
X684744Y265020D01*
X684615Y266000D01*
X684744Y266980D01*
X685122Y267893D01*
X685723Y268676D01*
X686507Y269278D01*
X687420Y269656D01*
X688400Y269785D01*
X689380Y269656D01*
X690293Y269278D01*
X691077Y268676D01*
X691678Y267893D01*
X692056Y266980D01*
X692185Y266000D01*
X692056Y265020D01*
X691678Y264107D01*
X691077Y263323D01*
X690293Y262722D01*
X689380Y262344D01*
X688400Y262215D01*
X687420Y262344D01*
X686853Y262579D01*
X666515Y242240D01*
X666706Y241778D01*
X672304D01*
X684979Y254453D01*
X684744Y255020D01*
X684615Y256000D01*
X684744Y256980D01*
X685122Y257893D01*
X685723Y258677D01*
X686507Y259278D01*
X687420Y259656D01*
X688400Y259785D01*
X689380Y259656D01*
X690293Y259278D01*
X691077Y258677D01*
X691678Y257893D01*
X692056Y256980D01*
X692185Y256000D01*
X692056Y255020D01*
X691678Y254107D01*
X691077Y253324D01*
X690293Y252722D01*
X689380Y252344D01*
X688400Y252215D01*
X687420Y252344D01*
X686853Y252579D01*
X674546Y240272D01*
X674738Y239810D01*
X680335D01*
X684979Y244453D01*
X684744Y245020D01*
X684615Y246000D01*
X684744Y246980D01*
X685122Y247893D01*
X685723Y248676D01*
X686507Y249278D01*
X687420Y249656D01*
X688400Y249785D01*
X689380Y249656D01*
X690293Y249278D01*
X691077Y248676D01*
X691678Y247893D01*
X692056Y246980D01*
X692185Y246000D01*
X692056Y245020D01*
X691678Y244107D01*
X691077Y243323D01*
X690293Y242722D01*
X689380Y242344D01*
X688400Y242215D01*
X687420Y242344D01*
X686853Y242579D01*
X681821Y237547D01*
X681391Y237260D01*
X680884Y237159D01*
X576269D01*
X576078Y236697D01*
X607449Y205326D01*
X655851D01*
X684979Y234453D01*
X684744Y235020D01*
X684615Y236000D01*
X684744Y236980D01*
X685122Y237893D01*
X685723Y238677D01*
X686507Y239278D01*
X687420Y239656D01*
X688400Y239785D01*
X689380Y239656D01*
X690293Y239278D01*
X691077Y238677D01*
X691678Y237893D01*
X692056Y236980D01*
X692185Y236000D01*
X692056Y235020D01*
X691678Y234107D01*
X691077Y233324D01*
X690293Y232722D01*
X689380Y232344D01*
X688400Y232215D01*
X687420Y232344D01*
X686853Y232579D01*
X663562Y209287D01*
X663753Y208825D01*
X669351D01*
X684979Y224453D01*
X684744Y225020D01*
X684615Y226000D01*
X684744Y226980D01*
X685122Y227893D01*
X685723Y228677D01*
X686507Y229278D01*
X687420Y229656D01*
X688400Y229785D01*
X689380Y229656D01*
X690293Y229278D01*
X691077Y228677D01*
X691678Y227893D01*
X692056Y226980D01*
X692185Y226000D01*
X692056Y225020D01*
X691678Y224107D01*
X691077Y223323D01*
X690293Y222722D01*
X689380Y222344D01*
X688400Y222215D01*
X687420Y222344D01*
X686853Y222579D01*
X670837Y206563D01*
X670407Y206275D01*
X669900Y206174D01*
X662995D01*
X661608Y204787D01*
X661799Y204326D01*
X674851D01*
X684979Y214453D01*
X684744Y215020D01*
X684615Y216000D01*
X684744Y216980D01*
X685122Y217893D01*
X685723Y218676D01*
X686507Y219278D01*
X687420Y219656D01*
X688400Y219785D01*
X689380Y219656D01*
X690293Y219278D01*
X691077Y218676D01*
X691678Y217893D01*
X692056Y216980D01*
X692185Y216000D01*
X692056Y215020D01*
X691678Y214107D01*
X691077Y213323D01*
X690293Y212722D01*
X689380Y212344D01*
X688400Y212215D01*
X687420Y212344D01*
X686853Y212579D01*
X676337Y202063D01*
X675907Y201775D01*
X675400Y201675D01*
X661040D01*
X659753Y200387D01*
X659944Y199925D01*
X680451D01*
X684979Y204453D01*
X684744Y205020D01*
X684615Y206000D01*
X684744Y206980D01*
X685122Y207893D01*
X685723Y208677D01*
X686507Y209278D01*
X687420Y209656D01*
X688400Y209785D01*
X689380Y209656D01*
X690293Y209278D01*
X691077Y208677D01*
X691678Y207893D01*
X692056Y206980D01*
X692185Y206000D01*
X692056Y205020D01*
X691678Y204107D01*
X691077Y203324D01*
X690293Y202722D01*
X689380Y202344D01*
X688400Y202215D01*
X687420Y202344D01*
X686853Y202579D01*
X682100Y197826D01*
X682307Y197326D01*
X684887D01*
X685122Y197893D01*
X685723Y198677D01*
X686507Y199278D01*
X687420Y199656D01*
X688400Y199785D01*
X689380Y199656D01*
X690293Y199278D01*
X691077Y198677D01*
X691678Y197893D01*
X692056Y196980D01*
X692185Y196000D01*
X692056Y195020D01*
X691678Y194107D01*
X691077Y193324D01*
X690293Y192722D01*
X689380Y192344D01*
X688400Y192215D01*
X687420Y192344D01*
X686507Y192722D01*
X685723Y193324D01*
X685122Y194107D01*
X684887Y194675D01*
X659203D01*
X659012Y194213D01*
X665899Y187326D01*
X684887D01*
X685122Y187893D01*
X685723Y188677D01*
X686507Y189278D01*
X687420Y189656D01*
X688400Y189785D01*
X689380Y189656D01*
X690293Y189278D01*
X691077Y188677D01*
X691678Y187893D01*
X692056Y186980D01*
X692185Y186000D01*
X692056Y185020D01*
X691678Y184107D01*
X691077Y183324D01*
X690293Y182722D01*
X689380Y182344D01*
X688400Y182215D01*
X687420Y182344D01*
X686507Y182722D01*
X685723Y183324D01*
X685122Y184107D01*
X684887Y184675D01*
X666657D01*
X666466Y184213D01*
X673353Y177325D01*
X684671D01*
X684947Y177993D01*
X685581Y178819D01*
X686407Y179453D01*
X687368Y179851D01*
X687900Y179921D01*
Y176000D01*
Y172079D01*
X687368Y172149D01*
X686407Y172547D01*
X685581Y173181D01*
X684947Y174007D01*
X684671Y174674D01*
X674109D01*
X673918Y174213D01*
X680907Y167224D01*
X684647D01*
Y169753D01*
X692153D01*
Y162247D01*
X684647D01*
Y164777D01*
X680400D01*
X679932Y164870D01*
X679535Y165135D01*
X676678Y167991D01*
X676254Y167708D01*
X676556Y166980D01*
X676685Y166000D01*
X676556Y165020D01*
X676178Y164107D01*
X675576Y163323D01*
X674793Y162722D01*
X673880Y162344D01*
X672900Y162215D01*
X671920Y162344D01*
X671007Y162722D01*
X670224Y163323D01*
X669622Y164107D01*
X669244Y165020D01*
X669115Y166000D01*
X669244Y166980D01*
X669479Y167547D01*
X650851Y186174D01*
X645253D01*
X645062Y185713D01*
X661353Y169421D01*
X661920Y169656D01*
X662900Y169785D01*
X663880Y169656D01*
X664793Y169278D01*
X665577Y168676D01*
X666178Y167893D01*
X666556Y166980D01*
X666685Y166000D01*
X666556Y165020D01*
X666178Y164107D01*
X665577Y163323D01*
X664793Y162722D01*
X663880Y162344D01*
X662900Y162215D01*
X661920Y162344D01*
X661007Y162722D01*
X660223Y163323D01*
X659622Y164107D01*
X659244Y165020D01*
X659115Y166000D01*
X659244Y166980D01*
X659479Y167547D01*
X642651Y184374D01*
X637053D01*
X636862Y183913D01*
X651353Y169421D01*
X651920Y169656D01*
X652900Y169785D01*
X653880Y169656D01*
X654793Y169278D01*
X655577Y168676D01*
X656178Y167893D01*
X656556Y166980D01*
X656685Y166000D01*
X656556Y165020D01*
X656178Y164107D01*
X655577Y163323D01*
X654793Y162722D01*
X653880Y162344D01*
X652900Y162215D01*
X651920Y162344D01*
X651007Y162722D01*
X650223Y163323D01*
X649622Y164107D01*
X649244Y165020D01*
X649115Y166000D01*
X649244Y166980D01*
X649479Y167547D01*
X634451Y182574D01*
X624868D01*
X624676Y182113D01*
X639091Y167698D01*
X639582Y167795D01*
X639622Y167893D01*
X640224Y168676D01*
X641007Y169278D01*
X641920Y169656D01*
X642900Y169785D01*
X643880Y169656D01*
X644793Y169278D01*
X645576Y168676D01*
X646178Y167893D01*
X646556Y166980D01*
X646685Y166000D01*
X646556Y165020D01*
X646178Y164107D01*
X645576Y163323D01*
X644793Y162722D01*
X643880Y162344D01*
X642900Y162215D01*
X641920Y162344D01*
X641007Y162722D01*
X640224Y163323D01*
X639622Y164107D01*
X639387Y164674D01*
X638914D01*
X638407Y164775D01*
X637977Y165063D01*
X637172Y165868D01*
X636644Y165689D01*
X636556Y165020D01*
X636178Y164107D01*
X635576Y163323D01*
X634793Y162722D01*
X633880Y162344D01*
X632900Y162215D01*
X631920Y162344D01*
X631007Y162722D01*
X630224Y163323D01*
X629622Y164107D01*
X629387Y164674D01*
X628914D01*
X628407Y164775D01*
X627977Y165063D01*
X627172Y165868D01*
X626644Y165689D01*
X626556Y165020D01*
X626178Y164107D01*
X625576Y163323D01*
X624793Y162722D01*
X623880Y162344D01*
X622900Y162215D01*
X621920Y162344D01*
X621007Y162722D01*
X620224Y163323D01*
X619622Y164107D01*
X619387Y164674D01*
X618914D01*
X618407Y164775D01*
X617977Y165063D01*
X617172Y165868D01*
X616644Y165689D01*
X616556Y165020D01*
X616178Y164107D01*
X615577Y163323D01*
X614793Y162722D01*
X613880Y162344D01*
X612900Y162215D01*
X611920Y162344D01*
X611007Y162722D01*
X610223Y163323D01*
X609622Y164107D01*
X609387Y164674D01*
X608914D01*
X608407Y164775D01*
X607977Y165063D01*
X607172Y165868D01*
X606644Y165689D01*
X606556Y165020D01*
X606178Y164107D01*
X605577Y163323D01*
X604793Y162722D01*
X603880Y162344D01*
X602900Y162215D01*
X601920Y162344D01*
X601007Y162722D01*
X600223Y163323D01*
X599622Y164107D01*
X599351Y164761D01*
X598914Y164674D01*
X598407Y164775D01*
X597977Y165063D01*
X597172Y165868D01*
X596644Y165689D01*
X596556Y165020D01*
X596178Y164107D01*
X595576Y163323D01*
X594793Y162722D01*
X593880Y162344D01*
X592900Y162215D01*
X591920Y162344D01*
X591007Y162722D01*
X590224Y163323D01*
X589622Y164107D01*
X589387Y164674D01*
X588914D01*
X588407Y164775D01*
X587977Y165063D01*
X587172Y165868D01*
X586644Y165689D01*
X586556Y165020D01*
X586178Y164107D01*
X585576Y163323D01*
X584793Y162722D01*
X583880Y162344D01*
X582900Y162215D01*
X581920Y162344D01*
X581007Y162722D01*
X580224Y163323D01*
X579622Y164107D01*
X579387Y164674D01*
X578914D01*
X578407Y164775D01*
X577977Y165063D01*
X577172Y165868D01*
X576644Y165689D01*
X576556Y165020D01*
X576178Y164107D01*
X575576Y163323D01*
X574793Y162722D01*
X573880Y162344D01*
X572900Y162215D01*
X571920Y162344D01*
X571007Y162722D01*
X570224Y163323D01*
X569622Y164107D01*
X569387Y164674D01*
X568914D01*
X568407Y164775D01*
X567977Y165063D01*
X567172Y165868D01*
X566644Y165689D01*
X566556Y165020D01*
X566178Y164107D01*
X565577Y163323D01*
X564793Y162722D01*
X563880Y162344D01*
X562900Y162215D01*
X561920Y162344D01*
X561007Y162722D01*
X560223Y163323D01*
X559622Y164107D01*
X559387Y164674D01*
X558914D01*
X558407Y164775D01*
X557977Y165063D01*
X557172Y165868D01*
X556644Y165689D01*
X556556Y165020D01*
X556178Y164107D01*
X555577Y163323D01*
X554793Y162722D01*
X553880Y162344D01*
X552900Y162215D01*
X551920Y162344D01*
X551007Y162722D01*
X550223Y163323D01*
X549622Y164107D01*
X549387Y164674D01*
X548914D01*
X548407Y164775D01*
X547977Y165063D01*
X547172Y165868D01*
X546644Y165689D01*
X546556Y165020D01*
X546178Y164107D01*
X545576Y163323D01*
X544793Y162722D01*
X543880Y162344D01*
X542900Y162215D01*
X541920Y162344D01*
X541007Y162722D01*
X540224Y163323D01*
X539622Y164107D01*
X539387Y164674D01*
X538914D01*
X538407Y164775D01*
X537977Y165063D01*
X537712Y165327D01*
X537153D01*
X537102Y165337D01*
X536556Y165020D01*
X536178Y164107D01*
X535576Y163323D01*
X534793Y162722D01*
X533880Y162344D01*
X532900Y162215D01*
X531920Y162344D01*
X531007Y162722D01*
X530224Y163323D01*
X529622Y164107D01*
X529244Y165020D01*
X529203Y165327D01*
X527153D01*
X527039Y165350D01*
X526653Y165033D01*
Y162247D01*
X519147D01*
Y169753D01*
X521311D01*
Y215748D01*
X521319Y215789D01*
Y216999D01*
X520857Y217190D01*
X518471Y214805D01*
Y166475D01*
X518378Y166007D01*
X518113Y165610D01*
X513485Y160982D01*
X513088Y160717D01*
X512620Y160624D01*
X499180D01*
X498712Y160717D01*
X498315Y160982D01*
X495882Y163415D01*
X495617Y163812D01*
X495524Y164280D01*
Y164388D01*
X495018Y164893D01*
X494447Y164757D01*
X494178Y164107D01*
X493576Y163323D01*
X492793Y162722D01*
X491880Y162344D01*
X490900Y162215D01*
X489920Y162344D01*
X489007Y162722D01*
X488224Y163323D01*
X487622Y164107D01*
X487244Y165020D01*
X487115Y166000D01*
X487244Y166980D01*
X487521Y167649D01*
X486835Y168335D01*
X486570Y168732D01*
X486477Y169200D01*
Y177500D01*
X485400D01*
Y180000D01*
Y182500D01*
X486593D01*
X486835Y182862D01*
X490916Y186944D01*
Y199838D01*
X476360D01*
Y206162D01*
X478013D01*
X478330Y206549D01*
X478310Y206650D01*
X478310Y206650D01*
Y213200D01*
X478100D01*
Y217800D01*
X478360D01*
Y219814D01*
X477860Y220092D01*
X477200Y219961D01*
X474956D01*
X473457Y218462D01*
X473649Y218000D01*
X474400D01*
Y216000D01*
X472400D01*
Y216751D01*
X471938Y216943D01*
X469198Y214202D01*
X468602Y213804D01*
X468200Y213724D01*
Y213200D01*
X467735D01*
Y206500D01*
X468013Y206162D01*
X470090D01*
Y199838D01*
X454710D01*
Y206162D01*
X462967D01*
X464065Y207260D01*
Y213200D01*
X463600D01*
Y217800D01*
X467605D01*
X470176Y220372D01*
X470158Y220558D01*
X469716Y221220D01*
X469561Y222000D01*
X469716Y222780D01*
X470158Y223442D01*
X470820Y223884D01*
X471600Y224039D01*
X476252D01*
X476443Y224501D01*
X476034Y224910D01*
X474400D01*
X474144Y224961D01*
X471600D01*
X470820Y225116D01*
X470158Y225558D01*
X469716Y226220D01*
X469561Y227000D01*
X469716Y227780D01*
X469820Y227936D01*
X469584Y228377D01*
X457216D01*
X456980Y227936D01*
X457084Y227780D01*
X457239Y227000D01*
X457084Y226220D01*
X456642Y225558D01*
X455980Y225116D01*
X455200Y224961D01*
X449600D01*
X448820Y225116D01*
X448158Y225558D01*
X447716Y226220D01*
X447561Y227000D01*
X447716Y227780D01*
X447908Y228067D01*
X448132Y228460D01*
X447781Y228708D01*
X447741Y228735D01*
X439535Y236941D01*
X439270Y237338D01*
X439177Y237806D01*
Y240521D01*
X432886Y246812D01*
X432424Y246621D01*
Y244083D01*
X429455D01*
X426487D01*
Y246621D01*
X426025Y246812D01*
X425349Y246136D01*
Y243583D01*
X425256Y243114D01*
X424991Y242718D01*
X424594Y242452D01*
X424126Y242359D01*
X423169D01*
Y238058D01*
X422490D01*
Y226178D01*
X425105D01*
Y221822D01*
X418457D01*
X414517Y217882D01*
X414005Y217540D01*
X413400Y217420D01*
X393650D01*
Y216500D01*
X391400D01*
Y216000D01*
X390900D01*
Y214000D01*
X389150D01*
X388980Y213570D01*
Y213500D01*
X388860Y212895D01*
X388517Y212383D01*
X387302Y211167D01*
X386789Y210825D01*
X386185Y210704D01*
X372989D01*
X372385Y210825D01*
X371872Y211167D01*
X370004Y213035D01*
X366013D01*
Y218965D01*
X372535D01*
Y214974D01*
X373644Y213865D01*
X375265D01*
Y218965D01*
X379256D01*
X380409Y220117D01*
X380921Y220460D01*
X381526Y220580D01*
X412745D01*
X413525Y221360D01*
X413334Y221822D01*
X411694D01*
Y226178D01*
X418310D01*
Y238058D01*
X417631D01*
Y241617D01*
X417132Y241885D01*
X416783Y241652D01*
X415983Y241493D01*
X414113D01*
Y238058D01*
X408576D01*
Y243395D01*
X407562Y244410D01*
X398578D01*
Y241763D01*
X398490D01*
Y235551D01*
X398490Y235551D01*
X398331Y234751D01*
X397878Y234073D01*
X393102Y229297D01*
Y222385D01*
X385596D01*
Y234615D01*
X392508D01*
X394310Y236417D01*
Y241763D01*
X394222D01*
Y250675D01*
X387451D01*
X386944Y250775D01*
X386514Y251063D01*
X386190Y251387D01*
X385728Y251196D01*
Y249917D01*
X381572D01*
X377334Y245679D01*
X377526Y245217D01*
X385728D01*
Y235743D01*
X376490D01*
Y232449D01*
X376490Y232449D01*
X376331Y231649D01*
X375878Y230971D01*
X374204Y229297D01*
Y222385D01*
X366698D01*
Y234615D01*
X372310D01*
Y245701D01*
X372469Y246501D01*
X372922Y247179D01*
X375244Y249501D01*
X375072Y249917D01*
X375072D01*
Y253066D01*
Y256216D01*
Y259365D01*
Y262515D01*
Y266083D01*
X379380D01*
X379600Y266230D01*
X380400Y266389D01*
X392601D01*
X392601Y266389D01*
X393401Y266230D01*
X394079Y265777D01*
X395068Y264788D01*
X395550Y265111D01*
X396400Y265280D01*
X397250Y265111D01*
X397970Y264629D01*
X398452Y263909D01*
X398621Y263059D01*
Y262590D01*
X413104D01*
Y271942D01*
X427696D01*
Y261718D01*
X446363D01*
X446882Y262237D01*
X447312Y262525D01*
X447819Y262626D01*
X451393D01*
X451442Y263125D01*
X451220Y263170D01*
X450823Y263435D01*
X450120Y264138D01*
X449878Y264500D01*
X448685D01*
Y267000D01*
X448185D01*
Y267500D01*
X445685D01*
Y269500D01*
X447999D01*
X448190Y269962D01*
X447520Y270632D01*
X447255Y271029D01*
X447245Y271076D01*
X430727D01*
X430259Y271170D01*
X429862Y271435D01*
X416882Y284415D01*
X416617Y284812D01*
X416524Y285280D01*
Y288720D01*
X416617Y289188D01*
X416882Y289585D01*
X419315Y292018D01*
X419712Y292283D01*
X420180Y292376D01*
X473620D01*
X474088Y292283D01*
X474485Y292018D01*
X475727Y290776D01*
X477747D01*
X478216Y290683D01*
X478612Y290418D01*
X478878Y290021D01*
X478879Y290011D01*
X478887Y290004D01*
X479425Y289831D01*
X480007Y290278D01*
X480920Y290656D01*
X481900Y290785D01*
X482880Y290656D01*
X483793Y290278D01*
X484577Y289676D01*
X485178Y288893D01*
X485556Y287980D01*
X485685Y287000D01*
X485556Y286020D01*
X485321Y285453D01*
X499968Y270807D01*
X504666D01*
X505173Y270706D01*
X505603Y270418D01*
X506653Y269369D01*
X506895Y269006D01*
X507861D01*
X508365Y268906D01*
X508792Y268620D01*
X509078Y268193D01*
X509178Y267689D01*
Y266311D01*
X509078Y265807D01*
X508792Y265380D01*
X508694Y265314D01*
Y261746D01*
X508900Y261587D01*
X509400Y261833D01*
Y264500D01*
X511400D01*
Y262000D01*
X511900D01*
Y261500D01*
X514400D01*
Y261374D01*
X516585Y259189D01*
X516677Y259053D01*
X517176Y259204D01*
Y269993D01*
X503549Y283621D01*
X502880Y283344D01*
X501900Y283215D01*
X500920Y283344D01*
X500007Y283722D01*
X499224Y284324D01*
X498622Y285107D01*
X498244Y286020D01*
X498115Y287000D01*
X498244Y287980D01*
X498622Y288893D01*
X499034Y289429D01*
X498787Y289929D01*
X496560D01*
X495279Y288649D01*
X495556Y287980D01*
X495685Y287000D01*
X495556Y286020D01*
X495178Y285107D01*
X494577Y284324D01*
X493793Y283722D01*
X492880Y283344D01*
X491900Y283215D01*
X490920Y283344D01*
X490007Y283722D01*
X489223Y284324D01*
X488622Y285107D01*
X488244Y286020D01*
X488115Y287000D01*
X488244Y287980D01*
X488622Y288893D01*
X489223Y289676D01*
X490007Y290278D01*
X490920Y290656D01*
X491900Y290785D01*
X492880Y290656D01*
X493549Y290379D01*
X495188Y292018D01*
X495584Y292283D01*
X496053Y292376D01*
X505747D01*
X506215Y292283D01*
X506612Y292018D01*
X507505Y291125D01*
X507947Y290953D01*
Y290953D01*
X507947Y290953D01*
X511400D01*
Y287000D01*
Y283047D01*
X510634D01*
X510442Y282585D01*
X520849Y272179D01*
X521311Y272370D01*
Y288532D01*
X505321Y304522D01*
X502402D01*
X501895Y304623D01*
X501465Y304910D01*
X500053Y306322D01*
X493147D01*
X492640Y306423D01*
X492210Y306710D01*
X490798Y308122D01*
X483893D01*
X483386Y308223D01*
X482956Y308510D01*
X481544Y309922D01*
X474639D01*
X474131Y310023D01*
X473701Y310310D01*
X470209Y313802D01*
X469718Y313705D01*
X469678Y313607D01*
X469076Y312824D01*
X468293Y312222D01*
X467380Y311844D01*
X466400Y311715D01*
X465420Y311844D01*
X464507Y312222D01*
X463724Y312824D01*
X463122Y313607D01*
X462744Y314520D01*
X462615Y315500D01*
X462744Y316480D01*
X463122Y317393D01*
X463724Y318177D01*
X464507Y318778D01*
X465420Y319156D01*
X466400Y319285D01*
X467380Y319156D01*
X468293Y318778D01*
X469076Y318177D01*
X469678Y317393D01*
X469913Y316826D01*
X470386D01*
X470893Y316725D01*
X471323Y316437D01*
X472128Y315632D01*
X472656Y315811D01*
X472744Y316480D01*
X473122Y317393D01*
X473724Y318177D01*
X474507Y318778D01*
X475420Y319156D01*
X476400Y319285D01*
X477380Y319156D01*
X478293Y318778D01*
X479076Y318177D01*
X479678Y317393D01*
X479913Y316826D01*
X480386D01*
X480893Y316725D01*
X481323Y316437D01*
X482128Y315632D01*
X482656Y315811D01*
X482744Y316480D01*
X483122Y317393D01*
X483723Y318177D01*
X484507Y318778D01*
X485420Y319156D01*
X486400Y319285D01*
X487380Y319156D01*
X488293Y318778D01*
X489077Y318177D01*
X489678Y317393D01*
X489913Y316826D01*
X490386D01*
X490893Y316725D01*
X491323Y316437D01*
X492128Y315632D01*
X492656Y315811D01*
X492744Y316480D01*
X493122Y317393D01*
X493723Y318177D01*
X494507Y318778D01*
X495420Y319156D01*
X496400Y319285D01*
X497380Y319156D01*
X498293Y318778D01*
X499077Y318177D01*
X499678Y317393D01*
X499913Y316826D01*
X500386D01*
X500893Y316725D01*
X501323Y316437D01*
X502128Y315632D01*
X502656Y315811D01*
X502744Y316480D01*
X503122Y317393D01*
X503723Y318177D01*
X504507Y318778D01*
X505420Y319156D01*
X506400Y319285D01*
X507380Y319156D01*
X508293Y318778D01*
X509076Y318177D01*
X509678Y317393D01*
X510056Y316480D01*
X510185Y315500D01*
X510056Y314520D01*
X509821Y313953D01*
X530691Y293083D01*
X531153Y293274D01*
Y298872D01*
X517947Y312079D01*
X517380Y311844D01*
X516400Y311715D01*
X515420Y311844D01*
X514507Y312222D01*
X513724Y312824D01*
X513122Y313607D01*
X512744Y314520D01*
X512615Y315500D01*
X512744Y316480D01*
X513122Y317393D01*
X513724Y318177D01*
X514507Y318778D01*
X515420Y319156D01*
X516400Y319285D01*
X517380Y319156D01*
X518293Y318778D01*
X519076Y318177D01*
X519678Y317393D01*
X519718Y317295D01*
X520209Y317198D01*
X531448Y328437D01*
X531878Y328725D01*
X532386Y328825D01*
D02*
G37*
G36*
X650400Y295785D02*
X651380Y295656D01*
X652293Y295278D01*
X653077Y294676D01*
X653678Y293893D01*
X654056Y292980D01*
X654185Y292000D01*
X654056Y291020D01*
X653678Y290107D01*
X653077Y289323D01*
X652293Y288722D01*
X651380Y288344D01*
X650400Y288215D01*
X649420Y288344D01*
X648507Y288722D01*
X647723Y289323D01*
X647122Y290107D01*
X646744Y291020D01*
X646615Y292000D01*
X646744Y292980D01*
X647122Y293893D01*
X647723Y294676D01*
X648507Y295278D01*
X649420Y295656D01*
X650400Y295785D01*
D02*
G37*
G36*
X512400Y290953D02*
X515853D01*
Y287500D01*
X512400D01*
Y290953D01*
D02*
G37*
G36*
X376254Y280257D02*
X385728D01*
Y270783D01*
X376254D01*
Y280257D01*
D02*
G37*
G36*
X512400Y286500D02*
X515853D01*
Y283047D01*
X512400D01*
Y286500D01*
D02*
G37*
G36*
X640400Y295785D02*
X641380Y295656D01*
X642293Y295278D01*
X643077Y294676D01*
X643678Y293893D01*
X644056Y292980D01*
X644185Y292000D01*
X644056Y291020D01*
X643678Y290107D01*
X643077Y289323D01*
X642293Y288722D01*
X641380Y288344D01*
X640400Y288215D01*
X639420Y288344D01*
X638507Y288722D01*
X637723Y289323D01*
X637122Y290107D01*
X636744Y291020D01*
X636615Y292000D01*
X636744Y292980D01*
X637122Y293893D01*
X637723Y294676D01*
X638507Y295278D01*
X639420Y295656D01*
X640400Y295785D01*
D02*
G37*
G36*
X630900Y305921D02*
X631432Y305851D01*
X632393Y305453D01*
X633219Y304819D01*
X633853Y303993D01*
X634251Y303032D01*
X634321Y302500D01*
X630900D01*
Y305921D01*
D02*
G37*
G36*
X606900Y315000D02*
X610321D01*
X610251Y314468D01*
X609853Y313507D01*
X609219Y312681D01*
X608393Y312047D01*
X607432Y311649D01*
X606900Y311579D01*
Y315000D01*
D02*
G37*
G36*
X650400Y305785D02*
X651380Y305656D01*
X652293Y305278D01*
X653077Y304677D01*
X653678Y303893D01*
X654056Y302980D01*
X654185Y302000D01*
X654056Y301020D01*
X653678Y300107D01*
X653077Y299324D01*
X652293Y298722D01*
X651380Y298344D01*
X650400Y298215D01*
X649420Y298344D01*
X648507Y298722D01*
X647723Y299324D01*
X647122Y300107D01*
X646744Y301020D01*
X646615Y302000D01*
X646744Y302980D01*
X647122Y303893D01*
X647723Y304677D01*
X648507Y305278D01*
X649420Y305656D01*
X650400Y305785D01*
D02*
G37*
G36*
X630900Y301500D02*
X634321D01*
X634251Y300968D01*
X633853Y300007D01*
X633219Y299181D01*
X632393Y298547D01*
X631432Y298149D01*
X630900Y298079D01*
Y301500D01*
D02*
G37*
G36*
X660400Y305785D02*
X661380Y305656D01*
X662293Y305278D01*
X663076Y304677D01*
X663678Y303893D01*
X664056Y302980D01*
X664185Y302000D01*
X664056Y301020D01*
X663678Y300107D01*
X663076Y299324D01*
X662293Y298722D01*
X661380Y298344D01*
X660400Y298215D01*
X659420Y298344D01*
X658507Y298722D01*
X657724Y299324D01*
X657122Y300107D01*
X656744Y301020D01*
X656615Y302000D01*
X656744Y302980D01*
X657122Y303893D01*
X657724Y304677D01*
X658507Y305278D01*
X659420Y305656D01*
X660400Y305785D01*
D02*
G37*
G36*
X555400Y266500D02*
X557400D01*
Y264500D01*
X555400D01*
Y266500D01*
D02*
G37*
G36*
X512400Y264500D02*
X514400D01*
Y262500D01*
X512400D01*
Y264500D01*
D02*
G37*
G36*
X426487Y243083D02*
X428955D01*
Y237858D01*
X426487D01*
Y243083D01*
D02*
G37*
G36*
X555400Y269500D02*
X557400D01*
Y267500D01*
X555400D01*
Y269500D01*
D02*
G37*
G36*
X445685Y266500D02*
X447685D01*
Y264500D01*
X445685D01*
Y266500D01*
D02*
G37*
%LPD*%
G36*
X449609Y272300D02*
Y272004D01*
X451850Y269762D01*
X452026Y269500D01*
X453185D01*
Y267000D01*
X453685D01*
Y266500D01*
X456185D01*
Y265524D01*
X456385D01*
X456853Y265430D01*
X457250Y265165D01*
X469323Y253092D01*
X469967Y253156D01*
X470158Y253442D01*
X470820Y253884D01*
X471600Y254039D01*
X477200D01*
X477980Y253884D01*
X478642Y253442D01*
X478720Y253326D01*
X481513D01*
Y253965D01*
X488035D01*
Y253965D01*
X488472Y253784D01*
X489279Y254592D01*
X489168Y255188D01*
X488959Y255328D01*
X471613Y272674D01*
X449916D01*
X449609Y272300D01*
D02*
G37*
G36*
X493376Y228263D02*
X492946Y227975D01*
X492439Y227874D01*
X482862D01*
X482354Y227975D01*
X481924Y228263D01*
X481430Y228757D01*
X480945Y228569D01*
X480901Y228194D01*
X493005Y216090D01*
X493270Y215693D01*
X493363Y215225D01*
Y186437D01*
X493270Y185969D01*
X493005Y185572D01*
X490395Y182962D01*
X490587Y182500D01*
X492900D01*
Y180500D01*
X490400D01*
Y180000D01*
X489900D01*
Y177500D01*
X488924D01*
Y169707D01*
X489251Y169379D01*
X489920Y169656D01*
X490900Y169785D01*
X491880Y169656D01*
X492593Y169361D01*
X492802Y169501D01*
X493271Y169594D01*
X493739Y169501D01*
X494136Y169236D01*
X496745Y166627D01*
X497219Y166787D01*
X497244Y166980D01*
X497622Y167893D01*
X498223Y168676D01*
X499007Y169278D01*
X499920Y169656D01*
X500900Y169785D01*
X501880Y169656D01*
X502549Y169379D01*
X509677Y176507D01*
Y219700D01*
X505100D01*
Y224300D01*
X507793D01*
X507946Y224500D01*
X507900Y224593D01*
Y227500D01*
X507400D01*
Y228000D01*
X504900D01*
Y229285D01*
X494398D01*
X493376Y228263D01*
D02*
G37*
G36*
X567900Y218472D02*
Y217500D01*
X565400D01*
Y217000D01*
X564900D01*
Y214500D01*
X564784D01*
X564592Y214038D01*
X585107Y193524D01*
X586349D01*
X586540Y193985D01*
X566025Y214500D01*
X565900D01*
Y216500D01*
X567900D01*
Y216374D01*
X588949Y195326D01*
X591047D01*
X591238Y195787D01*
X568362Y218664D01*
X567900Y218472D01*
D02*
G37*
%LPC*%
G36*
X474900Y256500D02*
X479400D01*
Y254800D01*
X474900D01*
Y256500D01*
D02*
G37*
G36*
X504900Y227000D02*
X506900D01*
Y225000D01*
X504900D01*
Y227000D01*
D02*
G37*
G36*
X469400Y256500D02*
X473900D01*
Y254800D01*
X469400D01*
Y256500D01*
D02*
G37*
G36*
X490900Y179500D02*
X492900D01*
Y177500D01*
X490900D01*
Y179500D01*
D02*
G37*
G36*
X454185Y269500D02*
X456185D01*
Y267500D01*
X454185D01*
Y269500D01*
D02*
G37*
G36*
X474900Y259200D02*
X479400D01*
Y257500D01*
X474900D01*
Y259200D01*
D02*
G37*
G36*
X469400D02*
X473900D01*
Y257500D01*
X469400D01*
Y259200D01*
D02*
G37*
%LPD*%
D10*
X503432Y267000D02*
D03*
X507369D02*
D03*
D11*
X511900Y256500D02*
D03*
Y262000D02*
D03*
X507400Y227500D02*
D03*
Y222000D02*
D03*
D12*
X484900Y180000D02*
D03*
X490400D02*
D03*
X448185Y267000D02*
D03*
X453685D02*
D03*
X480400Y215500D02*
D03*
X474900D02*
D03*
X460400D02*
D03*
X465900D02*
D03*
X490400Y244500D02*
D03*
X484900D02*
D03*
X490400Y232000D02*
D03*
X484900D02*
D03*
X554900Y267000D02*
D03*
X549400D02*
D03*
X565400Y217000D02*
D03*
X559900D02*
D03*
D13*
X391400Y216000D02*
D03*
X387400D02*
D03*
D14*
X369274D02*
D03*
X378526D02*
D03*
X494026Y251000D02*
D03*
X484774D02*
D03*
X494026Y238500D02*
D03*
X484774D02*
D03*
D15*
X452400Y257000D02*
D03*
Y232000D02*
D03*
Y227000D02*
D03*
Y252000D02*
D03*
Y237000D02*
D03*
X474400Y232000D02*
D03*
Y237000D02*
D03*
Y242000D02*
D03*
Y247000D02*
D03*
Y252000D02*
D03*
Y222000D02*
D03*
X452400Y242000D02*
D03*
X474400Y227000D02*
D03*
X452400Y222000D02*
D03*
Y247000D02*
D03*
D16*
X474400Y257000D02*
D03*
D17*
X380400Y264299D02*
D03*
Y261150D02*
D03*
Y258000D02*
D03*
Y254850D02*
D03*
Y251701D02*
D03*
D18*
X515648Y222736D02*
D03*
Y224705D02*
D03*
Y226673D02*
D03*
Y228642D02*
D03*
Y230610D02*
D03*
Y232579D02*
D03*
Y234547D02*
D03*
Y236516D02*
D03*
Y238484D02*
D03*
Y240453D02*
D03*
Y242421D02*
D03*
Y244390D02*
D03*
Y246358D02*
D03*
Y248327D02*
D03*
Y250295D02*
D03*
Y252264D02*
D03*
X559152D02*
D03*
Y250295D02*
D03*
Y248327D02*
D03*
Y246358D02*
D03*
Y244390D02*
D03*
Y242421D02*
D03*
Y240453D02*
D03*
Y238484D02*
D03*
Y236516D02*
D03*
Y234547D02*
D03*
Y232579D02*
D03*
Y230610D02*
D03*
Y228642D02*
D03*
Y226673D02*
D03*
Y224705D02*
D03*
Y222736D02*
D03*
D19*
X522636Y259252D02*
D03*
X524605D02*
D03*
X526573D02*
D03*
X528542D02*
D03*
X530510D02*
D03*
X532479D02*
D03*
X534447D02*
D03*
X536416D02*
D03*
X538384D02*
D03*
X540353D02*
D03*
X542321D02*
D03*
X544290D02*
D03*
X546258D02*
D03*
X548227D02*
D03*
X550195D02*
D03*
X552164D02*
D03*
Y215748D02*
D03*
X550195D02*
D03*
X548227D02*
D03*
X546258D02*
D03*
X544290D02*
D03*
X542321D02*
D03*
X540353D02*
D03*
X538384D02*
D03*
X536416D02*
D03*
X534447D02*
D03*
X532479D02*
D03*
X530510D02*
D03*
X528542D02*
D03*
X526573D02*
D03*
X524605D02*
D03*
X522636D02*
D03*
D20*
X429455Y243583D02*
D03*
X420400D02*
D03*
X411345D02*
D03*
D21*
X420400Y266417D02*
D03*
D22*
X370451Y228500D02*
D03*
X389349D02*
D03*
D23*
X418400Y224000D02*
D03*
D24*
X440400D02*
D03*
D25*
X396400Y246500D02*
D03*
D26*
Y260500D02*
D03*
D27*
X484050Y203000D02*
D03*
X462400D02*
D03*
D28*
X515924Y226950D02*
X515648Y226673D01*
X496747Y164894D02*
X493271Y168371D01*
X521900Y226950D02*
X515924D01*
X548227D02*
X521900D01*
X493271Y168371D02*
X490900Y166000D01*
X496747Y164280D02*
Y164894D01*
X499180Y161847D02*
X496747Y164280D01*
X512620Y161847D02*
X499180D01*
X517248Y166475D02*
X512620Y161847D01*
X517248Y166475D02*
Y215312D01*
X521900Y219964D02*
X517248Y215312D01*
X521900Y219964D02*
Y226950D01*
X469200Y251485D02*
X456385Y264300D01*
X451688D01*
X450985Y265003D01*
Y268897D01*
X448385Y271497D01*
Y272300D01*
X490900Y166000D02*
X487700Y169200D01*
Y181997D01*
X492140Y186437D02*
X487700Y181997D01*
X492140Y186437D02*
Y215225D01*
X603400Y322500D02*
X596400Y315500D01*
X617003Y322500D02*
X603400D01*
X620553Y318950D02*
X617003Y322500D01*
X620553Y312050D02*
Y318950D01*
Y312050D02*
X617047Y308545D01*
Y305353D02*
Y308545D01*
X620400Y302000D02*
X617047Y305353D01*
X492140Y215225D02*
X479600Y227765D01*
Y231006D01*
X512388Y224428D02*
X510900Y222940D01*
Y176000D02*
Y222940D01*
Y176000D02*
X500900Y166000D01*
X515372Y224428D02*
X512388D01*
X515648Y224705D02*
X515372Y224428D01*
X515648Y170748D02*
X510900Y166000D01*
X515648Y170748D02*
Y222736D01*
X469200Y247994D02*
Y251485D01*
Y246006D02*
Y247994D01*
X470606Y244600D02*
X469200Y246006D01*
X448385Y272300D02*
X430727D01*
X417747Y285280D01*
Y288720D01*
X420180Y291153D02*
X417747Y288720D01*
X479600Y231006D02*
Y238800D01*
X508400Y254493D02*
X508197Y254290D01*
X451400Y277500D02*
X441900Y287000D01*
X515648Y238484D02*
X515372Y238761D01*
X456027Y287000D02*
X451900D01*
X463380Y279647D02*
X456027Y287000D01*
X515648Y240453D02*
X515372Y240729D01*
X476053Y282847D02*
X471900Y287000D01*
X466027D02*
X461900D01*
X471780Y281247D02*
X466027Y287000D01*
X515648Y242421D02*
X515372Y242698D01*
X515648Y244390D02*
X515372Y244666D01*
X548227Y252500D02*
Y259252D01*
Y229841D02*
Y252500D01*
Y226950D02*
Y229841D01*
X484900Y232000D02*
Y235135D01*
Y241865D02*
Y244500D01*
X481334D01*
X479600Y246234D01*
Y247994D01*
X478194Y249400D01*
X470606D01*
X469200Y247994D01*
X475540Y244600D02*
X470606D01*
X476270Y243870D02*
X475540Y244600D01*
X476270Y243870D02*
X474400Y242000D01*
X578866Y309547D02*
X571411D01*
X569611Y307747D01*
X556888Y305947D02*
X548227Y297286D01*
X592273Y315500D02*
X588120Y311347D01*
X560357Y305947D02*
X556888D01*
X562157Y307747D02*
X560357Y305947D01*
X569611Y307747D02*
X562157D01*
X582309Y312991D02*
X578866Y309547D01*
X583036Y312991D02*
X582309D01*
X584680Y311347D02*
X583036Y312991D01*
X588120Y311347D02*
X584680D01*
X596400Y315500D02*
X592273D01*
X479600Y231006D02*
X478194Y229600D01*
X479600Y238800D02*
X476400Y242000D01*
X474400D01*
X424126Y243583D02*
X420400D01*
X478194Y229600D02*
X448606D01*
X440400Y237806D01*
Y241028D01*
X431921Y249507D01*
X426990D01*
X424126Y246643D01*
Y243583D02*
Y246643D01*
X688400Y166000D02*
X680400D01*
X655900Y190500D01*
X593450D02*
X591650Y192300D01*
X655900Y190500D02*
X593450D01*
X555239Y222828D02*
X548227Y229841D01*
X559060Y222828D02*
X555239D01*
X515372Y238761D02*
X503397D01*
X515372Y240729D02*
X504997D01*
X515372Y242698D02*
X506597D01*
X515372Y244666D02*
X508197D01*
Y254290D01*
X490400Y232000D02*
Y234874D01*
X494026Y238500D02*
X490400Y234874D01*
X488435Y241162D02*
X487732Y241865D01*
X484900D01*
X487732Y235135D02*
X484900D01*
X488435Y235838D02*
X487732Y235135D01*
X488435Y235838D02*
Y241162D01*
X494026Y248126D02*
Y251000D01*
Y248126D02*
X490400Y244500D01*
X476053Y281847D02*
Y282847D01*
X506597Y242698D02*
Y252893D01*
X473612Y277500D02*
X451400D01*
X503087Y255899D02*
X499220Y259765D01*
X491346D01*
X473612Y277500D01*
X504687Y256562D02*
X499883Y261365D01*
X492009D01*
X506287Y257225D02*
X500546Y262965D01*
X492672D01*
X507887Y257887D02*
X501209Y264565D01*
X493335D01*
X476053Y281847D01*
X503397Y238761D02*
Y249693D01*
X504997Y240729D02*
Y251293D01*
X492009Y261365D02*
X473727Y279647D01*
X463380D01*
X508400Y254493D02*
X507887Y255007D01*
Y257887D01*
X474390Y281247D02*
X471780D01*
X506597Y252893D02*
X506287Y253204D01*
Y257225D01*
X492672Y262965D02*
X474390Y281247D01*
X504997Y251293D02*
X504687Y251604D01*
Y256562D01*
X503397Y249693D02*
X503087Y250004D01*
Y255899D01*
X515648Y226673D02*
X512073D01*
X507400Y222000D01*
X549400Y265500D02*
X548227Y264327D01*
Y259252D02*
Y264327D01*
X549400Y267000D02*
Y296113D01*
X548227Y297286D01*
X552164Y259252D02*
Y298819D01*
X557592Y304247D02*
X552164Y298819D01*
X559152Y217748D02*
Y222736D01*
X584600Y192300D02*
X559900Y217000D01*
X559152Y217748D01*
X591650Y192300D02*
X584600D01*
X503432Y267000D02*
X496027D01*
X477747Y285280D01*
Y289553D01*
X475220D01*
X473620Y291153D01*
X420180D01*
X515648Y248327D02*
Y248603D01*
X507747Y283550D02*
Y289153D01*
X505747Y291153D01*
X496053D01*
X491900Y287000D01*
X520936Y270361D02*
X507747Y283550D01*
X520936Y256000D02*
Y270361D01*
X521003Y248603D02*
X515648D01*
X522400Y250000D02*
X521003Y248603D01*
X522400Y250000D02*
Y254536D01*
X520936Y256000D01*
X515648Y250295D02*
Y250572D01*
X519899Y251563D02*
X518908Y250572D01*
X519899Y251563D02*
Y253956D01*
X518908Y250572D02*
X515648D01*
X519899Y253956D02*
X518400Y255455D01*
Y270500D01*
X501900Y287000D01*
D29*
X613947Y314770D02*
Y315500D01*
X616400D02*
X611886Y320014D01*
X604900D01*
X602147Y317262D01*
Y315124D02*
Y317262D01*
Y315124D02*
X600323Y313300D01*
X560386Y325500D02*
X550386Y315500D01*
X616407Y325500D02*
X560386D01*
X624653Y317254D02*
X616407Y325500D01*
X532386Y327500D02*
X520386Y315500D01*
X620914Y327500D02*
X532386D01*
X644653Y303762D02*
X620914Y327500D01*
X425886Y287000D02*
X421900D01*
X438886Y274000D02*
X425886Y287000D01*
X515648Y232579D02*
X515569Y232500D01*
X435886Y287000D02*
X431900D01*
X447086Y275800D02*
X435886Y287000D01*
X515648Y236516D02*
X515472Y236692D01*
X488474Y249367D02*
Y251912D01*
Y249367D02*
X487442Y248335D01*
X487439D01*
X484774Y251000D01*
X492439Y229200D02*
X482862D01*
X482100Y229961D01*
Y234739D01*
X484196Y236835D02*
X482100Y234739D01*
X484774Y238500D02*
X476274Y247000D01*
X474400D01*
X484774Y251000D02*
X483774Y252000D01*
X474400D01*
X578161Y311247D02*
X570707D01*
X581605Y314691D02*
X578161Y311247D01*
X585591Y314691D02*
X581605D01*
X570707Y311247D02*
X568907Y309447D01*
X579570Y307847D02*
X572115D01*
X570315Y306047D01*
X556184Y307647D02*
X546258Y297722D01*
X561061Y304247D02*
X557592D01*
X562861Y306047D02*
X561061Y304247D01*
X570315Y306047D02*
X562861D01*
X582673Y310950D02*
X579570Y307847D01*
X582673Y310950D02*
Y310950D01*
X583976Y309647D02*
X582673Y310950D01*
X559653Y307647D02*
X556184D01*
X561453Y309447D02*
X559653Y307647D01*
X568907Y309447D02*
X561453D01*
X588824Y309647D02*
X583976D01*
X590468Y311291D02*
X588824Y309647D01*
X594595Y311291D02*
X590468D01*
X586400Y315500D02*
X585591Y314691D01*
X546258Y259252D02*
Y297722D01*
X568161Y311247D02*
X560707D01*
X572414Y315500D02*
X568161Y311247D01*
X560707D02*
X558907Y309447D01*
X555438D02*
X544290Y298299D01*
X558907Y309447D02*
X555438D01*
X576400Y315500D02*
X572414D01*
X544290Y259252D02*
Y298299D01*
X562414Y315500D02*
X558161Y311247D01*
X566400Y315500D02*
X562414D01*
X542321Y259252D02*
Y298876D01*
X554693Y311247D02*
X542321Y298876D01*
X558161Y311247D02*
X554693D01*
X594638D02*
X594595Y311291D01*
X598162Y311247D02*
X594638D01*
X600214Y313300D02*
X598162Y311247D01*
X600323Y313300D02*
X600214D01*
X616400Y315500D02*
X613947D01*
X524605Y259252D02*
Y289658D01*
X526573Y259252D02*
Y290236D01*
X524605Y289658D02*
X506616Y307647D01*
X494638Y311247D02*
X490386Y315500D01*
X502093Y311247D02*
X494638D01*
X503893Y309447D02*
X502093Y311247D01*
X526573Y290236D02*
X507362Y309447D01*
X493893D02*
X490293Y313047D01*
X501347Y309447D02*
X493893D01*
X503147Y307647D02*
X501347Y309447D01*
X490293Y313047D02*
X489961D01*
X491347Y309447D02*
X483893D01*
X500602Y307647D02*
X493147D01*
X502402Y305847D02*
X500602Y307647D01*
X493147D02*
X491347Y309447D01*
X522636Y259252D02*
Y289082D01*
X484639Y311247D02*
X480386Y315500D01*
X505870Y305847D02*
X502402D01*
X522636Y289082D02*
X505870Y305847D01*
X506616Y307647D02*
X503147D01*
X507362Y309447D02*
X503893D01*
X482093Y311247D02*
X474639D01*
X483893Y309447D02*
X482093Y311247D01*
X488162D02*
X484639D01*
X489961Y313047D02*
X488162Y311247D01*
X504638D02*
X500386Y315500D01*
X496400D01*
X508107Y311247D02*
X504638D01*
X528542Y290813D02*
X508107Y311247D01*
X528542Y259252D02*
Y290813D01*
X490386Y315500D02*
X486400D01*
X480386D02*
X476400D01*
X474639Y311247D02*
X470386Y315500D01*
X466400D01*
X465400Y252881D02*
X456981Y261300D01*
X465400Y242500D02*
Y252881D01*
X470900Y237000D02*
X465400Y242500D01*
X463400Y252336D02*
X456236Y259500D01*
X463400Y239000D02*
Y252336D01*
X470400Y232000D02*
X463400Y239000D01*
X474400Y237000D02*
X470900D01*
X474400Y232000D02*
X472400D01*
X456981Y261300D02*
X447819D01*
X446912Y260393D01*
X421466D01*
X416336Y255263D01*
X395291D01*
X392554Y258000D01*
X380400D01*
X447565Y258500D02*
X422119D01*
X448564Y259500D02*
X447565Y258500D01*
X456236Y259500D02*
X448564D01*
X422119Y258500D02*
X415619Y252000D01*
X387451D02*
X385200Y254251D01*
X415619Y252000D02*
X387451D01*
X385200Y254251D02*
X381000D01*
X380400Y254850D01*
X536416Y259252D02*
Y315484D01*
X536400Y315500D01*
X534447Y259252D02*
Y307453D01*
X526400Y315500D01*
X538384Y259252D02*
Y307484D01*
X546400Y315500D02*
X538384Y307484D01*
X532479Y259252D02*
Y299421D01*
X516400Y315500D01*
X540353Y259252D02*
Y299453D01*
X556400Y315500D02*
X540353Y299453D01*
X530510Y259252D02*
Y291390D01*
X506400Y315500D01*
X522636Y166264D02*
Y215748D01*
X572900Y166000D02*
X568914D01*
X562900D02*
X558914D01*
X552900D02*
X548914D01*
X526573Y179781D02*
Y215748D01*
X524605Y174295D02*
Y215748D01*
X526742Y179613D02*
X526573Y179781D01*
X532900Y166000D02*
X532247Y166653D01*
X524942Y173958D02*
X524605Y174295D01*
X532247Y166653D02*
X527153D01*
Y169491D01*
X526391Y170253D01*
X524942D01*
Y173958D01*
X526742Y172053D02*
Y179613D01*
X528542Y173193D02*
Y215748D01*
X529339Y168453D02*
X528953D01*
Y170237D01*
X527137Y172053D01*
X526742D01*
X530038Y171697D02*
X528542Y173193D01*
X531139Y170253D02*
X529339Y168453D01*
X530393Y172053D02*
X530038Y171697D01*
X530510Y174890D02*
Y215748D01*
X531547Y173853D02*
X530510Y174890D01*
X582900Y166000D02*
X578914D01*
X588914D02*
X584661Y170253D01*
X592900Y166000D02*
X588914D01*
X574661Y170253D02*
X571138D01*
X569339Y168453D01*
X584661Y170253D02*
X577207D01*
X575407Y172053D01*
X578914Y166000D02*
X574661Y170253D01*
X575407Y172053D02*
X567953D01*
X569339Y168453D02*
X569007D01*
X533156Y175653D02*
X532479Y176330D01*
Y215748D01*
X536416Y181227D02*
Y215748D01*
X612900Y166000D02*
X608914D01*
X622900D02*
X618914D01*
X538384Y181804D02*
Y215748D01*
X542900Y166000D02*
X538914D01*
X540353Y182381D02*
Y215748D01*
X534447Y180649D02*
Y215748D01*
X541681Y181053D02*
X540353Y182381D01*
X538721Y181466D02*
X538384Y181804D01*
X536921Y180721D02*
X536592Y181050D01*
X535121Y178070D02*
Y179975D01*
X534447Y180649D01*
X536898Y175653D02*
X533156D01*
X536153Y173853D02*
X531547D01*
X530802Y172053D02*
X530393D01*
X538914Y166000D02*
X538262Y166653D01*
X535739Y177453D02*
X535121Y178070D01*
X542321Y182958D02*
Y215748D01*
X538262Y166653D02*
X537153D01*
Y167762D01*
X534661Y170253D01*
X531139D01*
X539338Y168453D02*
X538953D01*
Y168507D01*
X535407Y172053D01*
X530802D01*
X539173Y170833D02*
X536153Y173853D01*
X539647D02*
X539173Y173378D01*
X536898Y175653D01*
X539444D02*
X537644Y177453D01*
X535739D01*
X540190D02*
X538389Y179253D01*
X536921D01*
Y180721D01*
X540935Y179253D02*
X539135Y181053D01*
X538721D01*
Y181466D01*
X542426Y182853D02*
X542321Y182958D01*
X632900Y166000D02*
X628914D01*
X642900D02*
X638914D01*
X546258Y187142D02*
Y215748D01*
X548227Y190676D02*
Y215748D01*
X550364Y215580D02*
X550195Y215748D01*
X544290Y186110D02*
Y215748D01*
X548914Y166000D02*
X544662Y170253D01*
X541139D01*
X539338Y168453D01*
X672900Y166000D02*
X651400Y187500D01*
X598914Y166000D02*
X590014Y174900D01*
X567651D01*
X564662Y170253D02*
X561138D01*
X560386Y169500D01*
X557960D01*
X565407Y172053D02*
X560393D01*
X559640Y171300D01*
X567651Y174900D02*
X566898Y175653D01*
X568397Y176700D02*
X567644Y177453D01*
X569142Y178500D02*
X568390Y179253D01*
X569888Y180300D02*
X569135Y181053D01*
X570633Y182100D02*
X569881Y182853D01*
X571379Y183900D02*
X570626Y184653D01*
X572124Y185700D02*
X571372Y186453D01*
X572870Y187500D02*
X572117Y188253D01*
X545407Y172053D02*
X540393D01*
X557960Y169500D02*
X555407Y172053D01*
X559640Y171300D02*
X558706D01*
X556153Y173853D01*
X556898Y175653D02*
X549444D01*
X547644Y177453D01*
X559444Y175653D02*
X557644Y177453D01*
X550189D01*
X548389Y179253D01*
X567644Y177453D02*
X560189D01*
X558390Y179253D01*
X550935D01*
X549135Y181053D01*
X568390Y179253D02*
X560935D01*
X559135Y181053D01*
X551681D01*
X549881Y182853D01*
X569135Y181053D02*
X561681D01*
X559881Y182853D01*
X552426D01*
X550626Y184653D01*
X569881Y182853D02*
X562426D01*
X560626Y184653D01*
X553172D01*
X551372Y186453D01*
X570626Y184653D02*
X563172D01*
X561372Y186453D01*
X553917D01*
X552117Y188253D01*
X571372Y186453D02*
X563917D01*
X562117Y188253D01*
X554663D01*
X572117D02*
X564663D01*
X562863Y190053D01*
X555408D01*
X540393Y172053D02*
X539173Y170833D01*
X568914Y166000D02*
X564662Y170253D01*
X546153Y173853D02*
X539647D01*
X569007Y168453D02*
X565407Y172053D01*
X546898Y175653D02*
X539444D01*
X567953Y172053D02*
X566153Y173853D01*
X547644Y177453D02*
X540190D01*
X566898Y175653D02*
X559444D01*
X548389Y179253D02*
X540935D01*
X549135Y181053D02*
X541681D01*
X549881Y182853D02*
X542426D01*
X552164Y193298D02*
Y215748D01*
X555408Y190053D02*
X552164Y193298D01*
X554663Y188253D02*
X550364Y192552D01*
X552117Y188253D02*
X550650D01*
X548403Y190500D01*
X551372Y186453D02*
X546947D01*
X546258Y187142D01*
X550626Y184653D02*
X545747D01*
X544290Y186110D01*
X558698Y173853D02*
X556898Y175653D01*
X566153Y173853D02*
X558698D01*
X548698D02*
X546898Y175653D01*
X556153Y173853D02*
X548698D01*
X547953Y172053D02*
X546153Y173853D01*
X555407Y172053D02*
X547953D01*
X547207Y170253D02*
X545407Y172053D01*
X558914Y166000D02*
X554662Y170253D01*
X547207D01*
X550364Y192552D02*
Y215580D01*
X559328Y224528D02*
X559152Y224705D01*
X562453Y224528D02*
X559328D01*
X563503Y223479D02*
X562453Y224528D01*
X688400Y176000D02*
X672804D01*
X562854Y226673D02*
X559152D01*
X565303Y224224D02*
X562854Y226673D01*
X565303Y223597D02*
Y224224D01*
X688400Y186000D02*
X665350D01*
X657350Y194000D01*
X672804Y176000D02*
X656604Y192200D01*
X608914Y166000D02*
X598214Y176700D01*
X568397D01*
X618914Y166000D02*
X606414Y178500D01*
X569142D01*
X628914Y166000D02*
X614614Y180300D01*
X569888D01*
X638914Y166000D02*
X622814Y182100D01*
X570633D01*
X652900Y166000D02*
X635000Y183900D01*
X571379D01*
X662900Y166000D02*
X643200Y185700D01*
X572124D01*
X651400Y187500D02*
X572870D01*
X594154Y192200D02*
X592354Y194000D01*
X594900D02*
X565303Y223597D01*
X656604Y192200D02*
X594154D01*
X657350Y194000D02*
X594900D01*
X688400Y196000D02*
X596073D01*
X563431Y228642D02*
X559152D01*
X596073Y196000D02*
X563431Y228642D01*
X565290Y230610D02*
X559152D01*
X566621Y232579D02*
X559152D01*
X571353Y234547D02*
X559152D01*
X598400Y207500D02*
X571353Y234547D01*
X688400Y226000D02*
X669900Y207500D01*
X574384Y236516D02*
X559152D01*
X596200Y203000D02*
X566621Y232579D01*
X688400Y216000D02*
X675400Y203000D01*
X688400Y236000D02*
X656400Y204000D01*
X606900D01*
X574384Y236516D01*
X669900Y207500D02*
X662446D01*
X657146Y202200D01*
X606154D01*
X600854Y207500D01*
X598400D01*
X675400Y203000D02*
X660491D01*
X657891Y200400D01*
X605409D01*
X602809Y203000D01*
X596200D01*
X681000Y198600D02*
X597300D01*
X688400Y206000D02*
X681000Y198600D01*
X597300D02*
X565290Y230610D01*
X680884Y238484D02*
X559152D01*
X688400Y246000D02*
X680884Y238484D01*
X672853Y240453D02*
X559152D01*
X688400Y256000D02*
X672853Y240453D01*
X664821Y242421D02*
X559152D01*
X688400Y266000D02*
X664821Y242421D01*
X656790Y244390D02*
X559152D01*
X688400Y276000D02*
X656790Y244390D01*
X648758Y246358D02*
X559152D01*
X688400Y286000D02*
X648758Y246358D01*
X640727Y248327D02*
X559152D01*
X688400Y296000D02*
X640727Y248327D01*
X632695Y250295D02*
X559152D01*
X688400Y306000D02*
X632695Y250295D01*
X686638Y320253D02*
X678854Y312469D01*
X690162Y320253D02*
X686638D01*
X692653Y317761D02*
X690162Y320253D01*
X692653Y306000D02*
Y317761D01*
Y306000D02*
X688400D01*
X678854Y305954D02*
Y312469D01*
Y305954D02*
X664900Y292000D01*
X660400D01*
X688400Y312954D02*
X627709Y252264D01*
X688400Y312954D02*
Y316000D01*
X627709Y252264D02*
X559152D01*
X620400Y292000D02*
X617958Y294442D01*
X623891Y297747D02*
X621264D01*
X624653Y298509D02*
X623891Y297747D01*
X624653Y298509D02*
Y317254D01*
X550386Y315500D02*
X546400D01*
X621264Y297747D02*
X617958Y294442D01*
X636147Y297747D02*
X630400Y292000D01*
X642162Y297747D02*
X636147D01*
X644653Y300238D02*
X642162Y297747D01*
X644653Y300238D02*
Y303762D01*
X520386Y315500D02*
X516400D01*
X515569Y232500D02*
X500696D01*
X500449Y232747D01*
X515472Y236692D02*
X501697D01*
X515648Y230610D02*
X493849D01*
X492439Y229200D01*
X486439Y236835D02*
X484196D01*
X486439D02*
X484774Y238500D01*
X494154Y232747D02*
X493200Y233702D01*
X497787Y235796D02*
X497025Y235035D01*
X497787Y235796D02*
Y241204D01*
X497025Y241965D01*
X499587Y241949D02*
X497771Y243765D01*
X515648Y234547D02*
X501296D01*
X499587Y236257D01*
Y241949D01*
X497771Y243765D02*
X497694D01*
X497444Y244016D01*
X497025Y241965D02*
X493496D01*
X497025Y235035D02*
X493996D01*
X493200Y234239D01*
Y233702D02*
Y234239D01*
X493496Y241965D02*
X493200Y242262D01*
Y244896D01*
X497444Y244016D02*
Y245408D01*
X500449Y232747D02*
X494154D01*
X495839Y247535D02*
X493200Y244896D01*
X497787Y248296D02*
X497025Y247535D01*
X497787Y248296D02*
Y253704D01*
X497025Y254465D01*
X491027D01*
X499587Y247551D02*
Y254449D01*
X497771Y256265D01*
X501387Y255195D02*
X498516Y258065D01*
X490642D01*
X472908Y275800D01*
X497025Y247535D02*
X495839D01*
X499587Y247551D02*
X497444Y245408D01*
X472162Y274000D02*
X438886D01*
X501697Y236692D02*
Y247993D01*
X472908Y275800D02*
X447086D01*
X501697Y247993D02*
X501387Y248304D01*
Y255195D01*
X489897Y256265D02*
X472162Y274000D01*
X497771Y256265D02*
X489897D01*
X491027Y254465D02*
X488474Y251912D01*
X515648Y228642D02*
X508542D01*
X507400Y227500D01*
X563503Y218897D02*
Y223479D01*
X565400Y217000D02*
X563503Y218897D01*
X588400Y194000D02*
X565400Y217000D01*
X592354Y194000D02*
X588400D01*
X511900Y256500D02*
X511297Y255897D01*
Y246747D02*
Y255897D01*
X511510Y246535D02*
X511297Y246747D01*
X515480Y246535D02*
X511510D01*
X515648Y246366D02*
X515480Y246535D01*
X507369Y261032D02*
Y267000D01*
X511900Y256500D02*
X507369Y261032D01*
Y267000D02*
X505716D01*
Y268431D01*
X504666Y269481D01*
X499419D01*
X481900Y287000D01*
X515648Y258252D02*
X511900Y262000D01*
X515648Y252272D02*
Y258252D01*
D30*
X387400Y213500D02*
Y216000D01*
Y213500D02*
X386185Y212285D01*
X372989D01*
X369274Y216000D01*
X381526Y219000D02*
X378526Y216000D01*
X413400Y219000D02*
X381526D01*
X418400Y224000D02*
X413400Y219000D01*
D31*
X450900Y255500D02*
X422725D01*
X415983Y248757D01*
Y243583D02*
Y248757D01*
Y243583D02*
X411345D01*
X420400Y226000D02*
Y243583D01*
X411345D02*
X408428Y246500D01*
X396400D01*
Y235551D02*
Y246500D01*
Y235551D02*
X389349Y228500D01*
X374400Y232449D02*
Y245701D01*
X380400Y251701D02*
X374400Y245701D01*
Y232449D02*
X370451Y228500D01*
X420400Y266417D02*
X414483Y260500D01*
X396400D01*
X392601Y264299D01*
X380400D01*
X480400Y206650D02*
Y215500D01*
X480450Y215550D02*
X480400Y215500D01*
X480450Y215550D02*
Y223450D01*
X476900Y227000D01*
X484050Y203000D02*
X480400Y206650D01*
X476900Y227000D02*
X474400D01*
D32*
Y222000D02*
X467900Y215500D01*
X465900D01*
Y206500D02*
X462400Y203000D01*
X465900Y206500D02*
Y215500D01*
D33*
X532479Y259252D02*
X532202Y259528D01*
D34*
X510900Y166000D02*
D03*
X500900D02*
D03*
X490900D02*
D03*
X606400Y315500D02*
D03*
X596400D02*
D03*
X586400D02*
D03*
X576400D02*
D03*
X566400D02*
D03*
X556400D02*
D03*
X546400D02*
D03*
X536400D02*
D03*
X526400D02*
D03*
X516400D02*
D03*
X506400D02*
D03*
X496400D02*
D03*
X486400D02*
D03*
X476400D02*
D03*
X466400D02*
D03*
X491900Y287000D02*
D03*
X421900D02*
D03*
X431900D02*
D03*
X441900D02*
D03*
X451900D02*
D03*
X461900D02*
D03*
X471900D02*
D03*
X481900D02*
D03*
X501900D02*
D03*
X688400Y316000D02*
D03*
Y306000D02*
D03*
Y296000D02*
D03*
Y286000D02*
D03*
Y276000D02*
D03*
Y266000D02*
D03*
Y256000D02*
D03*
Y246000D02*
D03*
Y236000D02*
D03*
Y226000D02*
D03*
Y216000D02*
D03*
Y206000D02*
D03*
Y196000D02*
D03*
Y186000D02*
D03*
Y176000D02*
D03*
X620400Y292000D02*
D03*
X630400Y302000D02*
D03*
Y292000D02*
D03*
X640400Y302000D02*
D03*
Y292000D02*
D03*
X650400Y302000D02*
D03*
Y292000D02*
D03*
X660400Y302000D02*
D03*
Y292000D02*
D03*
X672900Y166000D02*
D03*
X662900D02*
D03*
X652900D02*
D03*
X642900D02*
D03*
X632900D02*
D03*
X622900D02*
D03*
X612900D02*
D03*
X602900D02*
D03*
X592900D02*
D03*
X582900D02*
D03*
X572900D02*
D03*
X562900D02*
D03*
X552900D02*
D03*
X542900D02*
D03*
X532900D02*
D03*
D35*
X480900D02*
D03*
X616400Y315500D02*
D03*
X511900Y287000D02*
D03*
X620400Y302000D02*
D03*
X522900Y166000D02*
D03*
D36*
X380991Y275520D02*
D03*
X359337D02*
D03*
Y240480D02*
D03*
X380991D02*
D03*
D37*
X688400Y166000D02*
D03*
M02*
